<?xml version="1.0" encoding="utf-8"?>
<!-- Generator: Adobe Illustrator 18.0.0, SVG Export Plug-In . SVG Version: 6.00 Build 0)  -->
<!DOCTYPE svg PUBLIC "-//W3C//DTD SVG 1.1//EN" "http://www.w3.org/Graphics/SVG/1.1/DTD/svg11.dtd" [
	<!ENTITY ns_extend "http://ns.adobe.com/Extensibility/1.0/">
	<!ENTITY ns_ai "http://ns.adobe.com/AdobeIllustrator/10.0/">
	<!ENTITY ns_graphs "http://ns.adobe.com/Graphs/1.0/">
	<!ENTITY ns_vars "http://ns.adobe.com/Variables/1.0/">
	<!ENTITY ns_imrep "http://ns.adobe.com/ImageReplacement/1.0/">
	<!ENTITY ns_sfw "http://ns.adobe.com/SaveForWeb/1.0/">
	<!ENTITY ns_custom "http://ns.adobe.com/GenericCustomNamespace/1.0/">
	<!ENTITY ns_adobe_xpath "http://ns.adobe.com/XPath/1.0/">
]>
<svg version="1.1" id="Layer_1" xmlns:x="&ns_extend;" xmlns:i="&ns_ai;" xmlns:graph="&ns_graphs;"
	 xmlns="http://www.w3.org/2000/svg" xmlns:xlink="http://www.w3.org/1999/xlink" x="0px" y="0px" width="50px" height="50px"
	 viewBox="0 0 50 50" enable-background="new 0 0 50 50" xml:space="preserve">
<metadata>
	<sfw  xmlns="&ns_sfw;">
		<slices></slices>
		<sliceSourceBounds  width="51.1" height="51" y="275.5" x="273.4" bottomLeftOrigin="true"></sliceSourceBounds>
	</sfw>
</metadata>
<path fill="none" stroke="#000000" stroke-miterlimit="10" d="M49.2,46.4c-2.8-2.1-5.6-4.3-8.4-6.4c-1.7-1.3-3.5-2.6-5.2-4
	c-0.3-0.3-0.6-0.6-0.9-1c-2.5-4.9-5-9.8-7.4-14.7c-0.3-0.6-0.4-1.4-0.5-2.1c-0.3-5.9-0.6-11.8-0.9-17.7c0-0.1,0-0.2,0-0.3
	c1.6-0.4,1.8-0.3,2.6,1.2c7,13.9,14,27.7,21,41.5C50.2,44.3,50.3,45.3,49.2,46.4z"/>
<path fill="none" stroke="#000000" stroke-miterlimit="10" d="M1.8,48c3-1.7,6-3.5,9.1-5.2c1.8-1.1,3.6-2.1,5.5-3.1
	c0.5-0.3,1-0.4,1.6-0.4c4.8,0,9.5,0,14.3,0c0.4,0,0.9,0.1,1.2,0.3c4.9,2.8,9.7,5.6,14.5,8.4c0.1,0.1,0.2,0.2,0.4,0.3
	C47.7,50,47.7,50,46.2,50c-14,0-28,0-42,0C2.9,50,2.1,49.7,1.8,48z"/>
<path fill="none" stroke="#000000" stroke-miterlimit="10" d="M0.8,46.3c-1.1-1.6-1.1-1.6-0.3-3.1c7-13.9,14.1-27.8,21-41.8
	c0.6-1.2,1.3-1.6,2.5-1.2c0,1.4,0,2.8-0.1,4.3c-0.2,4.7-0.5,9.3-0.8,14c0,0.6-0.2,1.2-0.5,1.8c-2.5,5-5,9.9-7.5,14.9
	c-0.1,0.3-0.3,0.6-0.6,0.8c-4.4,3.4-8.9,6.8-13.3,10.1C1.1,46.2,1,46.2,0.8,46.3z"/>
</svg>
